<svg width="108" height="27" fill="none" xmlns="http://www.w3.org/2000/svg"><rect y="8.379" width="108" height="18.621" rx="5" fill="#4F4F4F"/><rect x="16" y="15" width="70" height="4" rx="2" fill="#ACDA53"/><rect width="23.276" height="3.724" rx="1.862" fill="#ACDA53"/><path d="M12.417 18.935v.875a.583.583 0 01-.636.584 5.772 5.772 0 01-2.517-.896 5.688 5.688 0 01-1.75-1.75 5.772 5.772 0 01-.896-2.529.583.583 0 01.58-.635h.876a.583.583 0 01.583.501 3.8 3.8 0 00.204.82.583.583 0 01-.131.615l-.37.37a4.667 4.667 0 001.75 1.75l.37-.37a.583.583 0 01.615-.131c.265.099.54.167.82.204a.584.584 0 01.502.592z" stroke="#ACDA53" stroke-linecap="round" stroke-linejoin="round"/></svg>