<svg width="41" height="40" fill="none" xmlns="http://www.w3.org/2000/svg"><path stroke="#4F4F4F" d="M1.207 20L20.5.707 39.792 20 20.5 39.293z"/><path d="M20.016 25.5c-.422-6.678 1.136-9.178 7.71-11 .277 7.13-1.688 9.299-7.71 11zm0 0c-4.31-1.51-6.6-2.494-6.765-8.527 5.257.959 6.844 2.73 6.765 8.527zm6.149-8.527l-2.097 2.876m-3.201 4.39l1.104-1.514m0 0h2.35m-2.35 0v-2.422m0 2.422l2.097-2.876m0 0v-2.473m0 2.473h2.097m-11.353-.656l2.082 2.22m1.844 1.968l-.614-.656m0 0V21.06m0 1.665h-1.75m1.75 0l-1.23-1.312m0 0v-2.22m0 2.22H15.19" stroke="#ACDA53"/></svg>