<svg width="40" height="40" fill="none" xmlns="http://www.w3.org/2000/svg"><path stroke="#4F4F4F" d="M.707 20L20 .707 39.292 20 20 39.293z"/><path d="M21.405 15.554c0 .727-.59 1.316-1.316 1.316m1.316-1.316a1.316 1.316 0 10-2.523.526m2.523-.526l3.245-.79m-4.56 2.106c-.54 0-1.004-.325-1.207-.79m1.207.79v8.86m4.561-10.966l-1.754 4.387m1.754-4.387l1.667 4.387m-7.435-3.07l-3.355.789m0 0l1.798 4.386m-1.798-4.386l-1.93 4.386m6.492 4.474h-3.246m3.246 0h3.333m-5.878-4.474a2.105 2.105 0 11-4.211 0h4.211zm9.123-2.106a2.105 2.105 0 01-4.21 0h4.21z" stroke="#ACDA53"/></svg>