<svg width="29" height="31" fill="inherit" xmlns="http://www.w3.org/2000/svg"><path d="M25.748 3.272C25.002 2.57 21.982.332 15.25.302c0 0-7.937-.486-11.802 3.138C1.298 5.635.54 8.857.458 12.846.375 16.836.275 24.311 7.33 26.34h.006l-.006 3.095s-.047 1.254.764 1.506c.975.312 1.55-.642 2.485-1.668a93.457 93.457 0 001.75-2.022c4.83.414 8.536-.534 8.96-.672.974-.323 6.49-1.043 7.384-8.518.928-7.715-.447-12.587-2.926-14.788zm.817 14.224c-.758 6.239-5.229 6.635-6.051 6.905-.353.114-3.613.942-7.708.672 0 0-3.055 3.761-4.006 4.74-.312.317-.652.287-.647-.343 0-.414.024-5.141.024-5.141-.006 0-.006 0 0 0-5.98-1.692-5.628-8.057-5.563-11.387.064-3.33.681-6.059 2.502-7.895 3.272-3.03 10.01-2.58 10.01-2.58 5.693.025 8.419 1.776 9.054 2.364 2.097 1.836 3.166 6.228 2.385 12.665zm-8.166-4.848c.023.516-.735.552-.758.036-.065-1.32-.67-1.961-1.915-2.033-.505-.03-.458-.804.041-.774 1.639.09 2.55 1.05 2.632 2.771zm1.192.678c.06-2.543-1.498-4.535-4.453-4.757-.499-.036-.446-.81.053-.774 3.408.252 5.223 2.646 5.158 5.55-.006.515-.77.491-.758-.019zm2.761.804c.006.516-.757.522-.757.006-.036-4.89-3.226-7.553-7.097-7.583-.5-.006-.5-.774 0-.774 4.33.03 7.813 3.084 7.854 8.351zm-.663 5.885v.012c-.635 1.14-1.822 2.4-3.044 1.998l-.011-.018c-1.24-.354-4.16-1.89-6.004-3.39a15.525 15.525 0 01-2.491-2.543 19.51 19.51 0 01-1.81-2.796c-1.25-2.31-1.527-3.341-1.527-3.341-.393-1.248.834-2.46 1.956-3.108h.012c.54-.288 1.058-.192 1.404.234 0 0 .729.888 1.04 1.326.294.408.687 1.062.893 1.428.358.654.135 1.32-.217 1.595l-.705.576c-.359.294-.312.84-.312.84s1.046 4.038 4.953 5.058c0 0 .534.048.822-.318l.564-.72c.27-.36.922-.588 1.563-.222.863.498 1.962 1.272 2.69 1.974.412.341.506.863.224 1.415z"/></svg>