<svg width="27" height="27" fill="inherit" xmlns="http://www.w3.org/2000/svg"><path d="M13.375.56C6.327.56.59 6.292.587 13.34a12.753 12.753 0 001.708 6.39L.56 26.16l6.697-1.583a12.776 12.776 0 006.11 1.555h.005c7.047 0 12.781-5.733 12.785-12.78a12.7 12.7 0 00-3.74-9.044A12.702 12.702 0 0013.375.56zm-.003 2.56a10.177 10.177 0 017.235 2.998 10.149 10.149 0 012.99 7.232c-.003 5.637-4.588 10.222-10.227 10.222a10.238 10.238 0 01-4.885-1.242l-.863-.47-.952.225-2.52.595.615-2.285.277-1.025-.53-.92a10.213 10.213 0 01-1.365-5.11C3.15 7.705 7.737 3.12 13.372 3.12zM8.85 7.44c-.214 0-.56.08-.853.4-.293.319-1.12 1.09-1.12 2.662 0 1.572 1.145 3.092 1.305 3.305.159.213 2.21 3.54 5.458 4.82 2.698 1.064 3.246.854 3.832.8.586-.052 1.891-.77 2.158-1.517.266-.746.266-1.388.187-1.52-.08-.133-.292-.213-.612-.373s-1.89-.93-2.183-1.037c-.293-.106-.507-.16-.72.16-.212.32-.823 1.037-1.01 1.25-.187.214-.372.242-.692.082-.32-.16-1.35-.499-2.57-1.587-.95-.846-1.591-1.89-1.778-2.21-.186-.319-.017-.494.143-.652.143-.144.317-.374.477-.56.159-.187.214-.32.32-.533.106-.213.052-.4-.027-.56-.08-.16-.701-1.738-.985-2.37-.24-.531-.493-.544-.72-.552-.186-.008-.398-.008-.61-.008z"/></svg>