<svg viewBox="0 0 336 336" xmlns="http://www.w3.org/2000/svg" xmlns:xlink="http://www.w3.org/1999/xlink"><style>:root&gt;svg{display:none}:root&gt;svg:target{display:block}</style><svg fill="none" viewBox="0 0 40 40" id="_top-weigher" xmlns="http://www.w3.org/2000/svg"><path stroke="#4F4F4F" d="M.707 20L20 .707 39.292 20 20 39.293z"/><path d="M21.405 15.554c0 .727-.59 1.316-1.316 1.316m1.316-1.316a1.316 1.316 0 10-2.523.526m2.523-.526l3.245-.79m-4.56 2.106c-.54 0-1.004-.325-1.207-.79m1.207.79v8.86m4.561-10.966l-1.754 4.387m1.754-4.387l1.667 4.387m-7.435-3.07l-3.355.789m0 0l1.798 4.386m-1.798-4.386l-1.93 4.386m6.492 4.474h-3.246m3.246 0h3.333m-5.878-4.474a2.105 2.105 0 11-4.211 0h4.211zm9.123-2.106a2.105 2.105 0 01-4.21 0h4.21z" stroke="#ACDA53"/></svg><svg fill="none" viewBox="0 0 22 22" id="advantages-icon" xmlns="http://www.w3.org/2000/svg"><circle cx="11" cy="11" r="10.5" fill="#333" stroke="#4F4F4F"/><path d="M14.911 8.8l-5.378 5.378-2.444-2.445" stroke="#ACDA53" stroke-width="2"/></svg><svg fill="none" viewBox="0 0 12 12" id="arrowDown" xmlns="http://www.w3.org/2000/svg"><path d="M3 4.5l3 3 3-3" stroke="#fff" stroke-linecap="round" stroke-linejoin="round"/></svg><svg fill="none" viewBox="0 0 180 158" id="cooperation-1" xmlns="http://www.w3.org/2000/svg"><path fill="#2D2C2C" d="M0 59.341L28.839-35 123.18-6.161 94.341 88.18z"/><path stroke="#2D2C2C" d="M9.707 72.287l84.58-84.58 84.579 84.58-84.58 84.58z"/></svg><svg fill="none" viewBox="0 0 186 166" id="cooperation-2" xmlns="http://www.w3.org/2000/svg"><path fill="#2D2C2C" d="M65 75.946L154.29 34l41.945 89.29-89.289 41.945z"/><path stroke="#2D2C2C" d="M.707 72.287l84.58-84.58 84.579 84.58-84.58 84.58z"/></svg><svg fill="none" viewBox="0 0 253 158" id="cooperation-3" xmlns="http://www.w3.org/2000/svg"><path fill="#2D2C2C" d="M43.269-25.91l88.7 43.179-43.18 88.7L.09 62.788z"/><path stroke="#2D2C2C" d="M82.707 72.287l84.58-84.58 84.579 84.58-84.58 84.58z"/></svg><svg fill="none" viewBox="0 0 186 158" id="cooperation-4" xmlns="http://www.w3.org/2000/svg"><path fill="#2D2C2C" d="M159.905-28l35.853 91.905-91.905 35.853L68 7.853z"/><path stroke="#2D2C2C" d="M.707 72.287l84.58-84.58 84.579 84.58-84.58 84.58z"/></svg><svg fill="none" viewBox="0 0 88 77" id="cooperation-agreement" xmlns="http://www.w3.org/2000/svg"><path d="M54.628 5a5 5 0 00-5-5H5a5 5 0 00-5 5v67a5 5 0 005 5h44.628a5 5 0 005-5V5z" fill="#4F4F4F"/><rect x="5.203" y="10.405" width="44.223" height="2.601" rx="1.301" fill="#ACDA53"/><rect x="5.203" y="18.209" width="44.223" height="2.601" rx="1.301" fill="#ACDA53"/><rect x="5.203" y="26.013" width="31.216" height="2.601" rx="1.301" fill="#ACDA53"/><rect x="33.818" y="67.115" width="15.608" height="1.561" rx=".78" fill="#ACDA53"/><path d="M10.097 58.27a1 1 0 011.407-.506l.913.497a1 1 0 001.01-.032l.88-.553a1 1 0 011.436.417l.446.938a1 1 0 00.837.569l1.037.069a1 1 0 01.916 1.18l-.19 1.023a1 1 0 00.342.951l.799.666a1 1 0 01.047 1.494l-.755.715a1 1 0 00-.282.97l.254 1.008a1 1 0 01-.84 1.237l-1.03.135a1 1 0 00-.8.62l-.386.964a1 1 0 01-1.406.507l-.913-.497a1 1 0 00-1.01.032l-.88.553a1 1 0 01-1.436-.417l-.447-.938a1 1 0 00-.836-.569l-1.037-.069a1 1 0 01-.916-1.18l.19-1.023a1 1 0 00-.342-.951l-.799-.666a1 1 0 01-.047-1.494l.755-.715a1 1 0 00.282-.97l-.255-1.008a1 1 0 01.84-1.237l1.031-.135a1 1 0 00.799-.62l.386-.964z" fill="#ACDA53"/><rect x="33.818" y="70.237" width="10.405" height="1.561" rx=".78" fill="#ACDA53"/><rect x="60.497" y="62.453" width="35.995" height="2.823" rx="1" transform="rotate(-45 60.497 62.453)" fill="#4F4F4F"/><path d="M60.564 64.382l.066-.59.525.524-.59.066z" stroke="#4F4F4F"/><path fill="#333" d="M82.956 39.995l.5-.5 1.996 1.997-.5.499z"/></svg><svg fill="none" viewBox="0 0 106 38" id="cooperation-discus" xmlns="http://www.w3.org/2000/svg"><circle cx="4.564" cy="12.027" r="4.564" fill="#ACDA53"/><path d="M105.886 31.155c0-5.523-4.477-10-10-10h-24.23a6.846 6.846 0 000 13.692h34.23v-3.692zm0 3.692h-2.282l2.282 2.282v-2.282z" fill="#ACDA53"/><path d="M13.692 10.617c0-5.523 4.477-10 10-10H71.2a6.846 6.846 0 110 13.692H13.692v-3.692zm0 3.693h2.282l-2.282 2.281V14.31z" fill="#4F4F4F"/></svg><svg fill="none" viewBox="0 0 108 27" id="cooperation-mail" xmlns="http://www.w3.org/2000/svg"><rect y="8.379" width="108" height="18.621" rx="5" fill="#4F4F4F"/><rect x="16.293" y="16.362" width="69.362" height="4" rx="2" fill="#ACDA53"/><rect width="23.276" height="3.724" rx="1.862" fill="#ACDA53"/><path d="M7.167 15.166h4.666c.321 0 .584.263.584.584v3.5c0 .32-.263.583-.584.583H7.167a.585.585 0 01-.584-.583v-3.5c0-.321.263-.584.584-.584z" stroke="#ACDA53" stroke-linecap="round" stroke-linejoin="round"/><path d="M12.417 15.75L9.5 17.792 6.583 15.75" stroke="#ACDA53" stroke-linecap="round" stroke-linejoin="round"/></svg><svg fill="none" viewBox="0 0 72 58" id="cooperation-tea" xmlns="http://www.w3.org/2000/svg"><path d="M70.2 39.875h-1.8V27.629a5.46 5.46 0 00-1.586-3.84L55.575 12.472a5.381 5.381 0 00-3.814-1.597H46.8V5.437c0-3-2.419-5.437-5.4-5.437h-36C2.419 0 0 2.436 0 5.438v36.25c0 3.002 2.419 5.437 5.4 5.437h1.8C7.2 53.129 12.037 58 18 58c5.962 0 10.8-4.871 10.8-10.875h14.4C43.2 53.129 48.037 58 54 58c5.962 0 10.8-4.871 10.8-10.875h5.4c.99 0 1.8-.816 1.8-1.813v-3.624c0-.997-.81-1.813-1.8-1.813zM18 52.563c-2.981 0-5.4-2.436-5.4-5.438s2.419-5.438 5.4-5.438c2.981 0 5.4 2.436 5.4 5.438s-2.419 5.438-5.4 5.438zm36 0c-2.981 0-5.4-2.436-5.4-5.438s2.419-5.438 5.4-5.438c2.981 0 5.4 2.436 5.4 5.438s-2.419 5.438-5.4 5.438zM63 29H46.8V16.312h4.961L63 27.63V29z" fill="#4F4F4F"/><path d="M24.48 23c-1.027-6.384-3.182-6.827-12.48-4.793 2.25 2.68 2.393 7.003 6.102 7.882 2.249.533 3.513.1 5.418-1.089-2.523-3.009-3.407-3.584-5.69-4.54 2.314-.641 3.533-.598 6.65 2.54zm2.57-1c-.843-7.304 1.494-8.52 8.95-9-.022 7.667-1.03 9.79-7.2 10l3.132-4.793L27.051 22z" fill="#ACDA53"/><path d="M27.05 23.556c-.675.77-1.093 1.614-1.322 2.814M25.559 32c-.108-2.557-.084-4.309.169-5.63m0 0l-.847-1.266M27.051 22c-.844-7.304 1.493-8.52 8.949-9-.022 7.667-1.03 9.79-7.2 10l3.132-4.793L27.051 22zm-2.571 1c-1.027-6.384-3.182-6.827-12.48-4.793 2.25 2.68 2.393 7.003 6.102 7.882 2.249.533 3.513.1 5.418-1.089-2.523-3.009-3.407-3.584-5.69-4.54 2.314-.641 3.533-.598 6.65 2.54z" stroke="#ACDA53"/><circle cx="18" cy="47" r="6" fill="#ACDA53"/><circle cx="54" cy="47" r="6" fill="#ACDA53"/><circle cx="18" cy="47" r="10" stroke="#333" stroke-width="2"/><circle cx="54" cy="47" r="10" stroke="#333" stroke-width="2"/></svg><svg fill="none" viewBox="0 0 108 27" id="cooperation-tel" xmlns="http://www.w3.org/2000/svg"><rect y="8.379" width="108" height="18.621" rx="5" fill="#4F4F4F"/><rect x="16" y="15" width="70" height="4" rx="2" fill="#ACDA53"/><rect width="23.276" height="3.724" rx="1.862" fill="#ACDA53"/><path d="M12.417 18.935v.875a.583.583 0 01-.636.584 5.772 5.772 0 01-2.517-.896 5.688 5.688 0 01-1.75-1.75 5.772 5.772 0 01-.896-2.529.583.583 0 01.58-.635h.876a.583.583 0 01.583.501 3.8 3.8 0 00.204.82.583.583 0 01-.131.615l-.37.37a4.667 4.667 0 001.75 1.75l.37-.37a.583.583 0 01.615-.131c.265.099.54.167.82.204a.584.584 0 01.502.592z" stroke="#ACDA53" stroke-linecap="round" stroke-linejoin="round"/></svg><svg fill="none" viewBox="0 0 106 33" id="cooperation-we" xmlns="http://www.w3.org/2000/svg"><path d="M13.692 9.233A9.128 9.128 0 0122.82.105h40.62a4.564 4.564 0 010 9.128H13.692zm0 0h2.282l-2.282 2.282V9.233z" fill="#4F4F4F"/><path d="M105.886 26.08c0-5.524-4.477-10-10-10H48.379a6.846 6.846 0 000 13.691h57.507V26.08z" fill="#ACDA53"/><path d="M105.886 29.771h-2.282l2.282 2.282v-2.282z" fill="#ACDA53"/><circle cx="4.564" cy="6.951" r="4.564" fill="#ACDA53"/></svg><svg fill="none" viewBox="0 0 16 16" id="download" xmlns="http://www.w3.org/2000/svg"><path d="M14 10v2.667A1.334 1.334 0 0112.667 14H3.333A1.334 1.334 0 012 12.667V10m2.667-3.333L8 10l3.333-3.333M8 10V2" stroke="#ACDA53"/></svg><svg fill="none" viewBox="0 0 41 40" id="icon" xmlns="http://www.w3.org/2000/svg"><path stroke="#4F4F4F" d="M1.207 20L20.5.707 39.792 20 20.5 39.293z"/><path d="M20.016 25.5c-.422-6.678 1.136-9.178 7.71-11 .277 7.13-1.688 9.299-7.71 11zm0 0c-4.31-1.51-6.6-2.494-6.765-8.527 5.257.959 6.844 2.73 6.765 8.527zm6.149-8.527l-2.097 2.876m-3.201 4.39l1.104-1.514m0 0h2.35m-2.35 0v-2.422m0 2.422l2.097-2.876m0 0v-2.473m0 2.473h2.097m-11.353-.656l2.082 2.22m1.844 1.968l-.614-.656m0 0V21.06m0 1.665h-1.75m1.75 0l-1.23-1.312m0 0v-2.22m0 2.22H15.19" stroke="#ACDA53"/></svg><svg fill="none" viewBox="0 0 10 8" id="quiz-ok" xmlns="http://www.w3.org/2000/svg"><path d="M9 1L3.5 6.5 1 4" stroke="#ACDA53" stroke-width="2"/></svg><svg fill="none" viewBox="0 0 336 336" id="recommendation" xmlns="http://www.w3.org/2000/svg"><path fill="#2D2C2C" d="M0 203.379L132.064 0l203.379 132.064-132.064 203.379z"/></svg><svg fill="none" viewBox="0 0 16 16" id="review-rect" xmlns="http://www.w3.org/2000/svg"><path fill="#ACDA53" d="M.929 8L8 .929l7.071 7.07L8 15.072z"/></svg><svg fill="none" viewBox="0 0 41 40" id="top-flower" xmlns="http://www.w3.org/2000/svg"><path stroke="#4F4F4F" d="M1.207 20L20.5.707 39.792 20 20.5 39.293z"/><path d="M20.016 25.5c-.422-6.678 1.136-9.178 7.71-11 .277 7.13-1.688 9.299-7.71 11zm0 0c-4.31-1.51-6.6-2.494-6.765-8.527 5.257.959 6.844 2.73 6.765 8.527zm6.149-8.527l-2.097 2.876m-3.201 4.39l1.104-1.514m0 0h2.35m-2.35 0v-2.422m0 2.422l2.097-2.876m0 0v-2.473m0 2.473h2.097m-11.353-.656l2.082 2.22m1.844 1.968l-.614-.656m0 0V21.06m0 1.665h-1.75m1.75 0l-1.23-1.312m0 0v-2.22m0 2.22H15.19" stroke="#ACDA53"/></svg><svg fill="none" viewBox="0 0 40 40" id="top-heart" xmlns="http://www.w3.org/2000/svg"><path stroke="#4F4F4F" d="M.707 20L20 .707 39.292 20 20 39.293z"/><path d="M24.698 16.34l-.355.353.355-.353zm-2.02-.84v.5-.5zm-2.018.84l.354.353-.354-.353zm-.55.552l-.355.353.355.356.354-.356-.354-.353zm-.55-.552l-.355.353.354-.353zm-3.488 4.606l.354-.353-.354.353zM20.11 25l-.355.353a.5.5 0 00.709 0L20.11 25zm4.038-4.054l-.355-.353.355.353zm-6.607-.552v.5a.5.5 0 00.459-.302l-.46-.198zm.874-2.027l.481-.136a.5.5 0 00-.94-.062l.459.198zm1.144 4.06l-.48.136a.5.5 0 00.953.028l-.473-.164zm1.1-3.167l.454-.212a.5.5 0 00-.926.048l.473.164zm.532 1.134l.461-.193a.414.414 0 00-.008-.02l-.453.213zm.395.944l-.461.193a.5.5 0 00.844.13l-.383-.323zm.795-.944v-.5a.5.5 0 00-.383.178l.383.322zm3.37.5a.5.5 0 100-1v1zm-11.5-1a.5.5 0 100 1v-1zm10.801-3.907a3.354 3.354 0 00-1.088-.73l-.385.923c.286.119.546.293.764.513l.709-.706zm-1.088-.73A3.346 3.346 0 0022.678 15v1c.309 0 .615.061.9.18l.384-.923zM22.678 15c-.441 0-.878.087-1.285.257l.384.923c.286-.119.592-.18.9-.18v-1zm-1.285.257a3.354 3.354 0 00-1.089.73l.71.706c.218-.22.477-.394.763-.513l-.384-.923zm-1.088.73l-.55.552.708.706.55-.552-.709-.706zm.158.552l-.55-.552-.709.706.55.552.709-.706zm-.55-.552A3.35 3.35 0 0017.54 15v1a2.35 2.35 0 011.664.693l.709-.706zM17.54 15a3.35 3.35 0 00-2.374.987l.709.706A2.35 2.35 0 0117.54 16v-1zm-2.374.987a3.372 3.372 0 00-.982 2.38h1c0-.629.249-1.23.69-1.674l-.708-.706zm-.982 2.38c0 .892.353 1.748.982 2.38l.709-.706a2.372 2.372 0 01-.69-1.674h-1zm.982 2.38l.55.552.709-.706-.55-.552-.709.706zm.55.552l4.038 4.054.709-.706-4.038-4.054-.709.706zm4.747 4.054l4.038-4.054-.709-.706-4.038 4.054.709.706zm4.038-4.054l.55-.552-.709-.706-.55.552.709.706zm.55-.552a3.39 3.39 0 00.727-1.092l-.924-.382a2.364 2.364 0 01-.512.768l.709.706zm.727-1.092a3.37 3.37 0 00.255-1.288h-1c0 .31-.06.619-.18.906l.925.382zm.255-1.288c0-.442-.086-.88-.255-1.288l-.924.381c.118.288.18.596.18.907h1zm-.255-1.288a3.368 3.368 0 00-.727-1.092l-.709.706c.22.22.393.48.512.767l.924-.381zM15.52 20.894h2.02v-1h-2.02v1zm2.48-.302l.874-2.027-.918-.396-.875 2.027.919.396zm-.066-2.09l1.144 4.06.963-.27-1.145-4.06-.962.27zm2.098 4.09l1.1-3.168-.945-.328-1.1 3.167.945.328zm.175-3.12l.531 1.134.906-.424-.531-1.134-.906.425zm.523 1.115l.395.944.922-.386-.395-.944-.922.386zm1.239 1.073l.794-.944-.765-.644-.795.944.766.644zm.412-.766h2.317v-1H22.38v1zm3.37-1h-1.053v1h1.053v-1zm-10.23 0h-1.27v1h1.27v-1z" fill="#ACDA53"/></svg><svg fill="none" viewBox="0 0 17 14" id="top-icon" xmlns="http://www.w3.org/2000/svg"><path d="M8.016 12.5c-.422-6.678 1.136-9.178 7.71-11 .277 7.13-1.688 9.299-7.71 11zm0 0c-4.31-1.51-6.6-2.494-6.765-8.528 5.257.96 6.844 2.73 6.765 8.528zm6.149-8.528L12.068 6.85m-3.201 4.39l1.104-1.514m0 0h2.35m-2.35 0V7.303m0 2.422l2.097-2.876m0 0V4.376m0 2.473h2.097M2.812 6.193l2.082 2.22m1.844 1.968l-.615-.656m0 0V8.06m0 1.665h-1.75m1.75 0l-1.23-1.312m0 0v-2.22m0 2.22H3.192" stroke="#ACDA53"/></svg><svg fill="none" viewBox="0 0 40 40" id="top-weigher" xmlns="http://www.w3.org/2000/svg"><path stroke="#4F4F4F" d="M.707 20L20 .707 39.292 20 20 39.293z"/><path d="M21.405 15.554c0 .727-.59 1.316-1.316 1.316m1.316-1.316a1.316 1.316 0 10-2.523.526m2.523-.526l3.245-.79m-4.56 2.106c-.54 0-1.004-.325-1.207-.79m1.207.79v8.86m4.561-10.966l-1.754 4.387m1.754-4.387l1.667 4.387m-7.435-3.07l-3.355.789m0 0l1.798 4.386m-1.798-4.386l-1.93 4.386m6.492 4.474h-3.246m3.246 0h3.333m-5.878-4.474a2.105 2.105 0 11-4.211 0h4.211zm9.123-2.106a2.105 2.105 0 01-4.21 0h4.21z" stroke="#ACDA53"/></svg></svg>