<svg width="72" height="58" fill="none" xmlns="http://www.w3.org/2000/svg"><path d="M70.2 39.875h-1.8V27.629a5.46 5.46 0 00-1.586-3.84L55.575 12.472a5.381 5.381 0 00-3.814-1.597H46.8V5.437c0-3-2.419-5.437-5.4-5.437h-36C2.419 0 0 2.436 0 5.438v36.25c0 3.002 2.419 5.437 5.4 5.437h1.8C7.2 53.129 12.037 58 18 58c5.962 0 10.8-4.871 10.8-10.875h14.4C43.2 53.129 48.037 58 54 58c5.962 0 10.8-4.871 10.8-10.875h5.4c.99 0 1.8-.816 1.8-1.813v-3.624c0-.997-.81-1.813-1.8-1.813zM18 52.563c-2.981 0-5.4-2.436-5.4-5.438s2.419-5.438 5.4-5.438c2.981 0 5.4 2.436 5.4 5.438s-2.419 5.438-5.4 5.438zm36 0c-2.981 0-5.4-2.436-5.4-5.438s2.419-5.438 5.4-5.438c2.981 0 5.4 2.436 5.4 5.438s-2.419 5.438-5.4 5.438zM63 29H46.8V16.312h4.961L63 27.63V29z" fill="#4F4F4F"/><path d="M24.48 23c-1.027-6.384-3.182-6.827-12.48-4.793 2.25 2.68 2.393 7.003 6.102 7.882 2.249.533 3.513.1 5.418-1.089-2.523-3.009-3.407-3.584-5.69-4.54 2.314-.641 3.533-.598 6.65 2.54zm2.57-1c-.843-7.304 1.494-8.52 8.95-9-.022 7.667-1.03 9.79-7.2 10l3.132-4.793L27.051 22z" fill="#ACDA53"/><path d="M27.05 23.556c-.675.77-1.093 1.614-1.322 2.814M25.559 32c-.108-2.557-.084-4.309.169-5.63m0 0l-.847-1.266M27.051 22c-.844-7.304 1.493-8.52 8.949-9-.022 7.667-1.03 9.79-7.2 10l3.132-4.793L27.051 22zm-2.571 1c-1.027-6.384-3.182-6.827-12.48-4.793 2.25 2.68 2.393 7.003 6.102 7.882 2.249.533 3.513.1 5.418-1.089-2.523-3.009-3.407-3.584-5.69-4.54 2.314-.641 3.533-.598 6.65 2.54z" stroke="#ACDA53"/><circle cx="18" cy="47" r="6" fill="#ACDA53"/><circle cx="54" cy="47" r="6" fill="#ACDA53"/><circle cx="18" cy="47" r="10" stroke="#333" stroke-width="2"/><circle cx="54" cy="47" r="10" stroke="#333" stroke-width="2"/></svg>