<svg width="88" height="77" fill="none" xmlns="http://www.w3.org/2000/svg"><path d="M54.628 5a5 5 0 00-5-5H5a5 5 0 00-5 5v67a5 5 0 005 5h44.628a5 5 0 005-5V5z" fill="#4F4F4F"/><rect x="5.203" y="10.405" width="44.223" height="2.601" rx="1.301" fill="#ACDA53"/><rect x="5.203" y="18.209" width="44.223" height="2.601" rx="1.301" fill="#ACDA53"/><rect x="5.203" y="26.013" width="31.216" height="2.601" rx="1.301" fill="#ACDA53"/><rect x="33.818" y="67.115" width="15.608" height="1.561" rx=".78" fill="#ACDA53"/><path d="M10.097 58.27a1 1 0 011.407-.506l.913.497a1 1 0 001.01-.032l.88-.553a1 1 0 011.436.417l.446.938a1 1 0 00.837.569l1.037.069a1 1 0 01.916 1.18l-.19 1.023a1 1 0 00.342.951l.799.666a1 1 0 01.047 1.494l-.755.715a1 1 0 00-.282.97l.254 1.008a1 1 0 01-.84 1.237l-1.03.135a1 1 0 00-.8.62l-.386.964a1 1 0 01-1.406.507l-.913-.497a1 1 0 00-1.01.032l-.88.553a1 1 0 01-1.436-.417l-.447-.938a1 1 0 00-.836-.569l-1.037-.069a1 1 0 01-.916-1.18l.19-1.023a1 1 0 00-.342-.951l-.799-.666a1 1 0 01-.047-1.494l.755-.715a1 1 0 00.282-.97l-.255-1.008a1 1 0 01.84-1.237l1.031-.135a1 1 0 00.799-.62l.386-.964z" fill="#ACDA53"/><rect x="33.818" y="70.237" width="10.405" height="1.561" rx=".78" fill="#ACDA53"/><rect x="60.497" y="62.453" width="35.995" height="2.823" rx="1" transform="rotate(-45 60.497 62.453)" fill="#4F4F4F"/><path d="M60.564 64.382l.066-.59.525.524-.59.066z" stroke="#4F4F4F"/><path fill="#333" d="M82.956 39.995l.5-.5 1.996 1.997-.5.499z"/></svg>