<svg width="27" height="26" fill="none" xmlns="http://www.w3.org/2000/svg"><path d="M13.603 6.517A6.552 6.552 0 007.04 13.08a6.552 6.552 0 006.562 6.564 6.552 6.552 0 006.562-6.564 6.552 6.552 0 00-6.562-6.563zm0 10.83a4.274 4.274 0 01-4.266-4.267 4.27 4.27 0 014.266-4.267 4.27 4.27 0 014.266 4.267 4.274 4.274 0 01-4.266 4.267zm8.36-11.099c0 .851-.685 1.531-1.53 1.531a1.53 1.53 0 111.53-1.53zm4.347 1.554c-.097-2.05-.566-3.867-2.068-5.364C22.746.941 20.93.473 18.88.37 16.767.25 10.433.25 8.32.37 6.275.467 4.46.936 2.957 2.432 1.455 3.93.993 5.746.89 7.796.77 9.91.77 16.245.89 18.358c.097 2.051.565 3.868 2.067 5.364C4.46 25.22 6.27 25.687 8.32 25.79c2.113.12 8.447.12 10.56 0 2.05-.097 3.866-.565 5.362-2.068 1.497-1.496 1.965-3.313 2.068-5.364.12-2.113.12-8.442 0-10.556zm-2.73 12.824a4.32 4.32 0 01-2.433 2.434c-1.685.668-5.682.514-7.544.514-1.862 0-5.866.148-7.545-.514a4.32 4.32 0 01-2.433-2.434c-.668-1.685-.514-5.684-.514-7.546s-.148-5.866.514-7.546a4.32 4.32 0 012.433-2.433c1.685-.669 5.683-.514 7.545-.514 1.861 0 5.865-.149 7.544.514a4.32 4.32 0 012.433 2.433c.668 1.685.514 5.684.514 7.546s.154 5.867-.514 7.546z" fill="#fff"/></svg>