<svg width="26" height="27" fill="none" xmlns="http://www.w3.org/2000/svg"><path d="M7.32.56A7.04 7.04 0 00.28 7.6c0 1.576.523 3.024 1.397 4.197a11.51 11.51 0 00-.117 1.563c0 6.363 5.157 11.52 11.52 11.52.53 0 1.05-.049 1.562-.118a6.999 6.999 0 004.197 1.398 7.04 7.04 0 007.04-7.04 6.998 6.998 0 00-1.397-4.198c.069-.511.117-1.03.117-1.562 0-6.363-5.157-11.52-11.52-11.52-.53 0-1.05.048-1.562.118A6.999 6.999 0 007.32.56zm0 2.56a4.45 4.45 0 012.67.89l.835.625 1.035-.14a8.971 8.971 0 011.22-.095c4.94 0 8.96 4.02 8.96 8.96 0 .353-.03.74-.096 1.22l-.14 1.035.625.835c.583.782.89 1.706.89 2.67 0 2.47-2.01 4.48-4.48 4.48a4.443 4.443 0 01-2.67-.89l-.835-.625-1.034.14a9.2 9.2 0 01-1.22.095c-4.941 0-8.96-4.02-8.96-8.96 0-.353.03-.74.095-1.22l.14-1.035-.625-.835a4.443 4.443 0 01-.89-2.67c0-2.47 2.01-4.48 4.48-4.48zm5.567 3.84c-4.813 0-5.168 2.827-5.168 3.525 0 1.388.796 2.465 2.155 2.988 1.446.555 3.2.888 4.195 1.16 1.558.426 1.36 1.284 1.36 1.41 0 1.318-1.805 1.657-2.575 1.585-.87-.082-1.752.166-2.67-1.723-.163-.338-.465-1.077-1.37-1.077-.391 0-1.37.298-1.37 1.232 0 1.833 2.047 3.7 5.608 3.7 1.861 0 5.332-.644 5.335-3.983 0-2.906-2.932-3.416-5.088-3.972-.59-.152-2.79-.396-2.79-1.547 0-.342.479-1.163 2.203-1.163 1.775 0 2.162.831 2.397 1.262.198.342.36.606.558.733a1.396 1.396 0 001.76-.147c.255-.265.382-.558.382-.89 0-1.448-1.712-3.093-4.922-3.093z" fill="#fff"/></svg>