<?xml version="1.0" encoding="utf-8"?><svg viewBox="0 0 41 40" xmlns="http://www.w3.org/2000/svg" xmlns:xlink="http://www.w3.org/1999/xlink"><style>:root>svg{display:none}:root>svg:target{display:block}</style><svg fill="none" viewBox="0 0 40 40" id="_top-weigher" xmlns="http://www.w3.org/2000/svg"><path stroke="#4F4F4F" d="M.707 20L20 .707 39.292 20 20 39.293z"/><path d="M21.405 15.554c0 .727-.59 1.316-1.316 1.316m1.316-1.316a1.316 1.316 0 10-2.523.526m2.523-.526l3.245-.79M20.09 16.87c-.54 0-1.004-.325-1.207-.79m1.207.79v8.86m4.561-10.966l-1.754 4.387m1.754-4.387l1.667 4.387m-7.435-3.07l-3.355.789m0 0l1.798 4.386m-1.798-4.386l-1.93 4.386m6.492 4.474h-3.246m3.246 0h3.333M17.545 21.256a2.105 2.105 0 11-4.211 0h4.211zM26.668 19.15a2.105 2.105 0 01-4.21 0h4.21z" stroke="#ACDA53"/></svg><svg fill="none" viewBox="0 0 22 22" id="advantages-icon" xmlns="http://www.w3.org/2000/svg"><circle cx="11" cy="11" r="10.5" fill="#333" stroke="#4F4F4F"/><path d="M14.911 8.8l-5.378 5.378-2.444-2.445" stroke="#ACDA53" stroke-width="2"/></svg><svg fill="none" viewBox="0 0 12 12" id="arrowDown" xmlns="http://www.w3.org/2000/svg"><path d="M3 4.5l3 3 3-3" stroke="#fff" stroke-linecap="round" stroke-linejoin="round"/></svg><svg fill="none" viewBox="0 0 16 16" id="download" xmlns="http://www.w3.org/2000/svg"><path d="M14 10v2.667A1.334 1.334 0 0112.667 14H3.333A1.334 1.334 0 012 12.667V10M4.667 6.667L8 10l3.333-3.333M8 10V2" stroke="#ACDA53"/></svg><svg fill="none" viewBox="0 0 41 40" id="icon" xmlns="http://www.w3.org/2000/svg"><path stroke="#4F4F4F" d="M1.207 20L20.5.707 39.792 20 20.5 39.293z"/><path d="M20.016 25.5c-.422-6.678 1.136-9.178 7.71-11 .277 7.13-1.688 9.299-7.71 11zm0 0c-4.31-1.51-6.6-2.494-6.765-8.527 5.257.959 6.844 2.73 6.765 8.527zm6.149-8.527l-2.097 2.876m-3.201 4.39l1.104-1.514m0 0h2.35m-2.35 0v-2.422m0 2.422l2.097-2.876m0 0v-2.473m0 2.473h2.097m-11.353-.656l2.082 2.22m1.844 1.968l-.614-.656m0 0V21.06m0 1.665h-1.75m1.75 0l-1.23-1.312m0 0v-2.22m0 2.22H15.19" stroke="#ACDA53"/></svg><svg fill="none" viewBox="0 0 10 8" id="quiz-ok" xmlns="http://www.w3.org/2000/svg"><path d="M9 1L3.5 6.5 1 4" stroke="#ACDA53" stroke-width="2"/></svg><svg fill="none" viewBox="0 0 41 40" id="top-flower" xmlns="http://www.w3.org/2000/svg"><path stroke="#4F4F4F" d="M1.207 20L20.5.707 39.792 20 20.5 39.293z"/><path d="M20.016 25.5c-.422-6.678 1.136-9.178 7.71-11 .277 7.13-1.688 9.299-7.71 11zm0 0c-4.31-1.51-6.6-2.494-6.765-8.527 5.257.959 6.844 2.73 6.765 8.527zm6.149-8.527l-2.097 2.876m-3.201 4.39l1.104-1.514m0 0h2.35m-2.35 0v-2.422m0 2.422l2.097-2.876m0 0v-2.473m0 2.473h2.097m-11.353-.656l2.082 2.22m1.844 1.968l-.614-.656m0 0V21.06m0 1.665h-1.75m1.75 0l-1.23-1.312m0 0v-2.22m0 2.22H15.19" stroke="#ACDA53"/></svg><svg fill="none" viewBox="0 0 40 40" id="top-heart" xmlns="http://www.w3.org/2000/svg"><path stroke="#4F4F4F" d="M.707 20L20 .707 39.292 20 20 39.293z"/><path d="M24.698 16.34l-.355.353.355-.353zm-2.02-.84v.5-.5zm-2.018.84l.354.353-.354-.353zm-.55.552l-.355.353.355.356.354-.356-.354-.353zm-.55-.552l-.355.353.354-.353zm-3.488 4.606l.354-.353-.354.353zM20.11 25l-.355.353a.5.5 0 00.709 0L20.11 25zm4.038-4.054l-.355-.353.355.353zm-6.607-.552v.5a.5.5 0 00.459-.302l-.46-.198zm.874-2.027l.481-.136a.5.5 0 00-.94-.062l.459.198zm1.144 4.06l-.48.136a.5.5 0 00.953.028l-.473-.164zm1.1-3.167l.454-.212a.5.5 0 00-.926.048l.473.164zm.532 1.134l.461-.193a.414.414 0 00-.008-.02l-.453.213zm.395.944l-.461.193a.5.5 0 00.844.13l-.383-.323zm.795-.944v-.5a.5.5 0 00-.383.178l.383.322zm3.37.5a.5.5 0 100-1v1zm-11.5-1a.5.5 0 100 1v-1zm10.801-3.907a3.354 3.354 0 00-1.088-.73l-.385.923c.286.119.546.293.764.513l.709-.706zm-1.088-.73A3.346 3.346 0 0022.678 15v1c.309 0 .615.061.9.18l.384-.923zM22.678 15c-.441 0-.878.087-1.285.257l.384.923c.286-.119.592-.18.9-.18v-1zm-1.285.257c-.407.169-.777.417-1.089.73l.71.706c.218-.22.477-.394.763-.513l-.384-.923zm-1.088.73l-.55.552.708.706.55-.552-.709-.706zm.158.552l-.55-.552-.709.706.55.552.709-.706zm-.55-.552A3.35 3.35 0 0017.54 15v1a2.35 2.35 0 011.664.693l.709-.706zM17.54 15a3.35 3.35 0 00-2.374.987l.709.706A2.35 2.35 0 0117.54 16v-1zm-2.374.987a3.372 3.372 0 00-.982 2.38h1c0-.629.249-1.23.69-1.674l-.708-.706zm-.982 2.38c0 .892.353 1.748.982 2.38l.709-.706a2.372 2.372 0 01-.69-1.674h-1zm.982 2.38l.55.552.709-.706-.55-.552-.709.706zm.55.552l4.038 4.054.709-.706-4.038-4.054-.709.706zm4.747 4.054l4.038-4.054-.709-.706-4.038 4.054.709.706zm4.038-4.054l.55-.552-.709-.706-.55.552.709.706zm.55-.552c.311-.313.558-.684.727-1.092l-.924-.382a2.364 2.364 0 01-.512.768l.709.706zm.727-1.092c.169-.409.255-.846.255-1.288h-1c0 .31-.06.619-.18.906l.925.382zm.255-1.288c0-.442-.086-.88-.255-1.288l-.924.381c.118.288.18.596.18.907h1zm-.255-1.288a3.368 3.368 0 00-.727-1.092l-.709.706c.22.22.393.48.512.767l.924-.381zm-10.258 3.815h2.02v-1h-2.02v1zM18 20.592l.874-2.027-.918-.396-.875 2.027.919.396zm-.066-2.09l1.144 4.06.963-.27-1.145-4.06-.962.27zm2.098 4.09l1.1-3.168-.945-.328-1.1 3.167.945.328zm.175-3.12l.531 1.134.906-.424-.531-1.134-.906.425zm.523 1.115l.395.944.922-.386-.395-.944-.922.386zm1.239 1.073l.794-.944-.765-.644-.795.944.766.644zm.412-.766h2.317v-1H22.38v1zm3.37-1h-1.053v1h1.053v-1zm-10.23 0h-1.27v1h1.27v-1z" fill="#ACDA53"/></svg><svg fill="none" viewBox="0 0 17 14" id="top-icon" xmlns="http://www.w3.org/2000/svg"><path d="M8.016 12.5c-.422-6.678 1.136-9.178 7.71-11 .277 7.13-1.688 9.299-7.71 11zm0 0c-4.31-1.51-6.6-2.494-6.765-8.528 5.257.96 6.844 2.73 6.765 8.528zm6.149-8.528L12.068 6.85m-3.201 4.39l1.104-1.514m0 0h2.35m-2.35 0V7.303m0 2.422l2.097-2.876m0 0V4.376m0 2.473h2.097M2.812 6.193l2.082 2.22m1.844 1.968l-.615-.656m0 0V8.06m0 1.665h-1.75m1.75 0l-1.23-1.312m0 0v-2.22m0 2.22H3.192" stroke="#ACDA53"/></svg><svg fill="none" viewBox="0 0 40 40" id="top-weigher" xmlns="http://www.w3.org/2000/svg"><path stroke="#4F4F4F" d="M.707 20L20 .707 39.292 20 20 39.293z"/><path d="M21.405 15.554c0 .727-.59 1.316-1.316 1.316m1.316-1.316a1.316 1.316 0 10-2.523.526m2.523-.526l3.245-.79M20.09 16.87c-.54 0-1.004-.325-1.207-.79m1.207.79v8.86m4.561-10.966l-1.754 4.387m1.754-4.387l1.667 4.387m-7.435-3.07l-3.355.789m0 0l1.798 4.386m-1.798-4.386l-1.93 4.386m6.492 4.474h-3.246m3.246 0h3.333M17.545 21.256a2.105 2.105 0 11-4.211 0h4.211zM26.668 19.15a2.105 2.105 0 01-4.21 0h4.21z" stroke="#ACDA53"/></svg></svg>