<svg width="108" height="27" viewBox="0 0 108 27" fill="none" xmlns="http://www.w3.org/2000/svg">
<rect y="8.37939" width="108" height="18.6207" rx="5" fill="#4F4F4F"/>
<rect x="16" y="15" width="70" height="4" rx="2" fill="#ACDA53"/>
<rect width="23.2759" height="3.72414" rx="1.86207" fill="#ACDA53"/>
<path d="M12.4167 18.9352V19.8102C12.417 19.8914 12.4004 19.9718 12.3678 20.0463C12.3353 20.1207 12.2876 20.1875 12.2277 20.2424C12.1678 20.2973 12.0972 20.3391 12.0202 20.3651C11.9433 20.3912 11.8617 20.4008 11.7808 20.3935C10.8833 20.296 10.0212 19.9893 9.26377 19.4981C8.55905 19.0503 7.96157 18.4528 7.51377 17.7481C7.02084 16.9872 6.71409 16.1209 6.61835 15.2194C6.61106 15.1387 6.62065 15.0574 6.6465 14.9807C6.67234 14.9039 6.71389 14.8334 6.76849 14.7736C6.82309 14.7138 6.88954 14.666 6.96362 14.6333C7.0377 14.6005 7.11778 14.5836 7.19877 14.5835H8.07377C8.21531 14.5821 8.35254 14.6323 8.45986 14.7246C8.56719 14.8169 8.63729 14.945 8.6571 15.0852C8.69403 15.3652 8.76252 15.6402 8.86127 15.9048C8.90051 16.0092 8.909 16.1226 8.88574 16.2317C8.86248 16.3408 8.80843 16.4409 8.73002 16.5202L8.3596 16.8906C8.7748 17.6208 9.3794 18.2254 10.1096 18.6406L10.48 18.2702C10.5593 18.1918 10.6594 18.1377 10.7685 18.1145C10.8776 18.0912 10.991 18.0997 11.0954 18.1389C11.3601 18.2377 11.635 18.3062 11.915 18.3431C12.0567 18.3631 12.1861 18.4345 12.2786 18.5436C12.3711 18.6528 12.4202 18.7922 12.4167 18.9352Z" stroke="#ACDA53" stroke-linecap="round" stroke-linejoin="round"/>
</svg>
