<svg width="106" height="33" viewBox="0 0 106 33" fill="none" xmlns="http://www.w3.org/2000/svg">
<path d="M13.6921 9.23306C13.6921 4.19176 17.7789 0.10498 22.8202 0.10498H63.4402C65.9608 0.10498 68.0042 2.14837 68.0042 4.66902C68.0042 7.18967 65.9608 9.23306 63.4402 9.23306H13.6921Z" fill="#4F4F4F"/>
<path d="M13.6922 9.23312H15.9742L13.6922 11.5151V9.23312Z" fill="#4F4F4F"/>
<path d="M105.886 26.0791C105.886 20.5563 101.409 16.0791 95.8857 16.0791H48.3788C44.5978 16.0791 41.5328 19.1442 41.5328 22.9252C41.5328 26.7061 44.5978 29.7712 48.3788 29.7712H105.886V26.0791Z" fill="#ACDA53"/>
<path d="M105.886 29.7712H103.604L105.886 32.0532V29.7712Z" fill="#ACDA53"/>
<circle cx="4.56404" cy="6.95076" r="4.56404" fill="#ACDA53"/>
</svg>
