<svg width="88" height="77" viewBox="0 0 88 77" fill="none" xmlns="http://www.w3.org/2000/svg">
<path d="M54.6284 5C54.6284 2.23858 52.3898 0 49.6284 0H5.00001C2.23858 0 1.14441e-05 2.23858 1.14441e-05 5V72C1.14441e-05 74.7614 2.23859 77 5.00001 77H49.6284C52.3898 77 54.6284 74.7614 54.6284 72V5Z" fill="#4F4F4F"/>
<rect x="5.20273" y="10.4053" width="44.223" height="2.60135" rx="1.30068" fill="#ACDA53"/>
<rect x="5.20273" y="18.2095" width="44.223" height="2.60135" rx="1.30068" fill="#ACDA53"/>
<rect x="5.20273" y="26.0132" width="31.2162" height="2.60135" rx="1.30068" fill="#ACDA53"/>
<rect x="33.8176" y="67.1152" width="15.6081" height="1.56081" rx="0.780405" fill="#ACDA53"/>
<path d="M10.0974 58.2708C10.32 57.7149 10.9779 57.478 11.5038 57.7642L12.4168 58.2612C12.7346 58.4342 13.1211 58.422 13.4273 58.2293L14.3072 57.6758C14.814 57.357 15.4855 57.552 15.7427 58.0927L16.1893 59.0314C16.3447 59.3581 16.6645 59.5754 17.0256 59.5995L18.0627 59.6689C18.6601 59.7089 19.0888 60.2613 18.9791 60.8499L18.7886 61.8718C18.7223 62.2275 18.8533 62.5913 19.1312 62.8231L19.9295 63.4888C20.3893 63.8723 20.4114 64.5712 19.9766 64.9829L19.2219 65.6977C18.9591 65.9465 18.8513 66.3178 18.9399 66.6686L19.1944 67.6765C19.341 68.257 18.9481 68.8354 18.3544 68.9129L17.3236 69.0475C16.9648 69.0944 16.6593 69.3314 16.5248 69.6673L16.1383 70.6323C15.9157 71.1881 15.2579 71.425 14.732 71.1388L13.8189 70.6418C13.5011 70.4689 13.1147 70.481 12.8084 70.6737L11.9285 71.2272C11.4217 71.5461 10.7502 71.3511 10.493 70.8104L10.0465 69.8717C9.89103 69.5449 9.57121 69.3276 9.21017 69.3035L8.173 69.2341C7.57558 69.1942 7.14694 68.6417 7.25667 68.0531L7.44716 67.0312C7.51347 66.6755 7.38245 66.3117 7.10456 66.08L6.30624 65.4142C5.84641 65.0307 5.82436 64.3318 6.25911 63.9201L7.01387 63.2054C7.2766 62.9566 7.38443 62.5852 7.29583 62.2344L7.0413 61.2266C6.89469 60.646 7.28764 60.0677 7.88136 59.9901L8.9121 59.8555C9.27089 59.8087 9.57638 59.5716 9.71091 59.2357L10.0974 58.2708Z" fill="#ACDA53"/>
<rect x="33.8176" y="70.2368" width="10.4054" height="1.56081" rx="0.780405" fill="#ACDA53"/>
<rect x="60.4973" y="62.4526" width="35.9955" height="2.82318" rx="1" transform="rotate(-45 60.4973 62.4526)" fill="#4F4F4F"/>
<path d="M60.5641 64.3819L60.6297 63.7912L61.1548 64.3163L60.5641 64.3819Z" stroke="#4F4F4F"/>
<rect x="82.9556" y="39.9946" width="0.705795" height="2.82318" transform="rotate(-45 82.9556 39.9946)" fill="#333333"/>
</svg>
