<svg width="106" height="38" viewBox="0 0 106 38" fill="none" xmlns="http://www.w3.org/2000/svg">
<circle cx="4.56404" cy="12.0274" r="4.56404" fill="#ACDA53"/>
<path d="M105.886 31.1553C105.886 25.6324 101.409 21.1553 95.8857 21.1553H71.6554C67.8745 21.1553 64.8094 24.2204 64.8094 28.0013C64.8094 31.7823 67.8744 34.8474 71.6554 34.8474H105.886V31.1553Z" fill="#ACDA53"/>
<path d="M105.886 34.8474H103.604L105.886 37.1294V34.8474Z" fill="#ACDA53"/>
<path d="M13.6921 10.6172C13.6921 5.09434 18.1693 0.617188 23.6921 0.617188H71.199C74.98 0.617188 78.0451 3.68227 78.0451 7.46325C78.0451 11.2442 74.98 14.3093 71.199 14.3093H13.6921V10.6172Z" fill="#4F4F4F"/>
<path d="M13.6922 14.3093H15.9742L13.6922 16.5913V14.3093Z" fill="#4F4F4F"/>
</svg>
