<svg width="72" height="58" viewBox="0 0 72 58" fill="none" xmlns="http://www.w3.org/2000/svg">
<path d="M70.2 39.875H68.4V27.6293C68.4 26.1906 67.8262 24.8086 66.8138 23.7891L55.575 12.4723C54.5625 11.4527 53.19 10.875 51.7612 10.875H46.8V5.4375C46.8 2.43555 44.3812 0 41.4 0H5.4C2.41875 0 0 2.43555 0 5.4375V41.6875C0 44.6895 2.41875 47.125 5.4 47.125H7.2C7.2 53.1289 12.0375 58 18 58C23.9625 58 28.8 53.1289 28.8 47.125H43.2C43.2 53.1289 48.0375 58 54 58C59.9625 58 64.8 53.1289 64.8 47.125H70.2C71.19 47.125 72 46.3094 72 45.3125V41.6875C72 40.6906 71.19 39.875 70.2 39.875ZM18 52.5625C15.0187 52.5625 12.6 50.127 12.6 47.125C12.6 44.123 15.0187 41.6875 18 41.6875C20.9812 41.6875 23.4 44.123 23.4 47.125C23.4 50.127 20.9812 52.5625 18 52.5625ZM54 52.5625C51.0187 52.5625 48.6 50.127 48.6 47.125C48.6 44.123 51.0187 41.6875 54 41.6875C56.9812 41.6875 59.4 44.123 59.4 47.125C59.4 50.127 56.9812 52.5625 54 52.5625ZM63 29H46.8V16.3125H51.7612L63 27.6293V29Z" fill="#4F4F4F"/>
<path d="M24.48 23C23.4528 16.6157 21.2983 16.1733 12 18.2074C14.2494 20.8866 14.393 25.2101 18.1017 26.0889C20.3507 26.6218 21.6148 26.1888 23.52 25C20.9975 21.9913 20.1131 21.4157 17.8305 20.4593C20.1441 19.8187 21.3629 19.8617 24.48 23Z" fill="#ACDA53"/>
<path d="M27.0509 22C26.2072 14.6961 28.5438 13.4802 36 13C35.9785 20.6671 34.9699 22.7904 28.8 23L31.9322 18.2074L27.0509 22Z" fill="#ACDA53"/>
<path d="M27.0509 23.5556C26.3745 24.3256 25.9571 25.1702 25.7278 26.3704M25.5593 32C25.4508 29.4429 25.4754 27.6913 25.7278 26.3704M25.7278 26.3704L24.8813 25.1037M27.0509 22C26.2072 14.6961 28.5438 13.4802 36 13C35.9785 20.6671 34.9699 22.7904 28.8 23L31.9322 18.2074L27.0509 22ZM24.48 23C23.4528 16.6157 21.2983 16.1733 12 18.2074C14.2494 20.8866 14.393 25.2101 18.1017 26.0889C20.3507 26.6218 21.6148 26.1888 23.52 25C20.9975 21.9913 20.1131 21.4157 17.8305 20.4593C20.1441 19.8187 21.3629 19.8617 24.48 23Z" stroke="#ACDA53"/>
<circle cx="18" cy="47" r="6" fill="#ACDA53"/>
<circle cx="54" cy="47" r="6" fill="#ACDA53"/>
<circle cx="18" cy="47" r="10" stroke="#333333" stroke-width="2"/>
<circle cx="54" cy="47" r="10" stroke="#333333" stroke-width="2"/>
</svg>
