<svg width="27" height="26" viewBox="0 0 27 26" fill="inherit" xmlns="http://www.w3.org/2000/svg">
<path d="M13.6027 6.51672C9.97046 6.51672 7.04069 9.44714 7.04069 13.0802C7.04069 16.7132 9.97046 19.6437 13.6027 19.6437C17.2349 19.6437 20.1647 16.7132 20.1647 13.0802C20.1647 9.44714 17.2349 6.51672 13.6027 6.51672ZM13.6027 17.3473C11.2555 17.3473 9.33654 15.4337 9.33654 13.0802C9.33654 10.7267 11.2497 8.81308 13.6027 8.81308C15.9557 8.81308 17.8689 10.7267 17.8689 13.0802C17.8689 15.4337 15.9499 17.3473 13.6027 17.3473ZM21.9637 6.24824C21.9637 7.09937 21.2784 7.77914 20.4331 7.77914C19.5822 7.77914 18.9026 7.09366 18.9026 6.24824C18.9026 5.40281 19.5879 4.71733 20.4331 4.71733C21.2784 4.71733 21.9637 5.40281 21.9637 6.24824ZM26.3098 7.80199C26.2127 5.75126 25.7444 3.93474 24.2424 2.43811C22.7461 0.941476 20.93 0.473065 18.8797 0.370243C16.7666 0.250284 10.4331 0.250284 8.31997 0.370243C6.27541 0.467352 4.45929 0.935764 2.95728 2.4324C1.45527 3.92903 0.992675 5.74555 0.889876 7.79628C0.769944 9.90984 0.769944 16.2448 0.889876 18.3584C0.986964 20.4091 1.45527 22.2256 2.95728 23.7223C4.45929 25.2189 6.2697 25.6873 8.31997 25.7901C10.4331 25.9101 16.7666 25.9101 18.8797 25.7901C20.93 25.693 22.7461 25.2246 24.2424 23.7223C25.7387 22.2256 26.207 20.4091 26.3098 18.3584C26.4297 16.2448 26.4297 9.91556 26.3098 7.80199ZM23.5799 20.6262C23.1345 21.7458 22.2721 22.6084 21.147 23.0596C19.4622 23.728 15.4645 23.5738 13.6027 23.5738C11.7409 23.5738 7.73744 23.7223 6.05839 23.0596C4.93902 22.6141 4.07665 21.7515 3.62547 20.6262C2.95728 18.941 3.11148 14.9424 3.11148 13.0802C3.11148 11.218 2.96299 7.21362 3.62547 5.53419C4.07094 4.41458 4.93331 3.55201 6.05839 3.10074C7.74315 2.4324 11.7409 2.58663 13.6027 2.58663C15.4645 2.58663 19.468 2.43811 21.147 3.10074C22.2664 3.5463 23.1287 4.40886 23.5799 5.53419C24.2481 7.21933 24.0939 11.218 24.0939 13.0802C24.0939 14.9424 24.2481 18.9468 23.5799 20.6262Z" fill="inherit"/>
</svg>
