<svg width="20" height="20" viewBox="0 0 20 20" fill="none" xmlns="http://www.w3.org/2000/svg">
<path d="M18.3333 14.0999V16.5999C18.3343 16.832 18.2868 17.0617 18.1938 17.2744C18.1008 17.487 17.9644 17.6779 17.7934 17.8348C17.6224 17.9917 17.4205 18.1112 17.2006 18.1855C16.9808 18.2599 16.7478 18.2875 16.5167 18.2666C13.9524 17.988 11.4892 17.1117 9.32502 15.7083C7.31154 14.4288 5.60446 12.7217 4.32502 10.7083C2.91666 8.53425 2.04022 6.05908 1.76668 3.48325C1.74586 3.25281 1.77324 3.02055 1.8471 2.80127C1.92095 2.58199 2.03966 2.38049 2.19565 2.2096C2.35165 2.03871 2.54152 1.90218 2.75317 1.80869C2.96483 1.7152 3.19363 1.6668 3.42502 1.66658H5.92502C6.32944 1.6626 6.72151 1.80582 7.02815 2.06953C7.33479 2.33324 7.53508 2.69946 7.59168 3.09992C7.6972 3.89997 7.89289 4.68552 8.17502 5.44158C8.28714 5.73985 8.3114 6.06401 8.24494 6.37565C8.17847 6.68729 8.02407 6.97334 7.80002 7.19992L6.74168 8.25825C7.92798 10.3445 9.65539 12.072 11.7417 13.2583L12.8 12.1999C13.0266 11.9759 13.3126 11.8215 13.6243 11.755C13.9359 11.6885 14.2601 11.7128 14.5583 11.8249C15.3144 12.107 16.1 12.3027 16.9 12.4083C17.3048 12.4654 17.6745 12.6693 17.9388 12.9812C18.2031 13.2931 18.3435 13.6912 18.3333 14.0999Z" stroke="#ACDA53" stroke-linecap="round" stroke-linejoin="round"/>
</svg>
