<svg width="26" height="27" viewBox="0 0 26 27" fill="none" xmlns="http://www.w3.org/2000/svg">
<path d="M7.3195 0.560059C3.43088 0.560059 0.279541 3.7114 0.279541 7.60001C0.279541 9.17568 0.802798 10.6237 1.67703 11.7975C1.60791 12.3095 1.55953 12.8288 1.55953 13.36C1.55953 19.7228 6.71662 24.8799 13.0795 24.8799C13.6107 24.8799 14.13 24.8315 14.6419 24.7624C15.8157 25.6366 17.2638 26.1599 18.8394 26.1599C22.728 26.1599 25.8794 23.0086 25.8794 19.1199C25.8794 17.5443 25.3561 16.0962 24.4819 14.9225C24.551 14.4105 24.5994 13.8912 24.5994 13.36C24.5994 6.99714 19.4423 1.84005 13.0795 1.84005C12.5483 1.84005 12.029 1.88843 11.517 1.95755C10.3432 1.08332 8.89517 0.560059 7.3195 0.560059ZM7.3195 3.12004C8.28333 3.12004 9.2074 3.42764 9.98948 4.01004L10.8245 4.63503L11.8595 4.49503C12.3382 4.42975 12.7262 4.40003 13.0795 4.40003C18.0202 4.40003 22.0394 8.41921 22.0394 13.36C22.0394 13.7133 22.0097 14.1 21.9444 14.58L21.8044 15.615L22.4294 16.45C23.0118 17.232 23.3194 18.1561 23.3194 19.1199C23.3194 21.5903 21.3098 23.5999 18.8394 23.5999C17.8756 23.5999 16.9515 23.2923 16.1694 22.7099L15.3344 22.0849L14.2995 22.2249C13.8195 22.2889 13.4327 22.3199 13.0795 22.3199C8.13869 22.3199 4.11952 18.3007 4.11952 13.36C4.11952 13.0067 4.14924 12.62 4.21452 12.14L4.35451 11.105L3.72952 10.27C3.14712 9.48792 2.83952 8.56385 2.83952 7.60001C2.83952 5.12963 4.84911 3.12004 7.3195 3.12004ZM12.887 6.96002C8.07419 6.96002 7.71949 9.7874 7.71949 10.485C7.71949 11.8725 8.51513 12.9502 9.87448 13.4725C11.3196 14.028 13.0736 14.3611 14.0695 14.6325C15.6272 15.0587 15.4294 15.917 15.4294 16.0425C15.4294 17.3609 13.6237 17.7004 12.8545 17.6275C11.9841 17.5455 11.1022 17.7942 10.1845 15.905C10.0206 15.567 9.71944 14.8275 8.81449 14.8275C8.42281 14.8275 7.44449 15.1256 7.44449 16.06C7.44449 17.8929 9.49102 19.7599 13.052 19.7599C14.9131 19.7599 18.3844 19.1157 18.3869 15.7775C18.3869 12.8706 15.455 12.3605 13.2995 11.805C12.7094 11.6527 10.5095 11.4095 10.5095 10.2575C10.5095 9.91574 10.9878 9.095 12.712 9.095C14.4873 9.095 14.8739 9.92614 15.1094 10.3575C15.3066 10.6993 15.4685 10.9633 15.6669 11.09C16.4541 11.593 17.1722 11.2075 17.4269 10.9425C17.6816 10.6775 17.8094 10.3853 17.8094 10.0525C17.8094 8.60483 16.0972 6.96002 12.887 6.96002Z" fill="white"/>
</svg>
