<svg width="40" height="40" viewBox="0 0 40 40" fill="none" xmlns="http://www.w3.org/2000/svg">
<rect x="0.707107" y="20" width="27.2843" height="27.2843" transform="rotate(-45 0.707107 20)" stroke="#4F4F4F"/>
<path d="M21.4046 15.554C21.4046 16.2807 20.8155 16.8698 20.0887 16.8698M21.4046 15.554C21.4046 14.8272 20.8155 14.2381 20.0887 14.2381C19.362 14.2381 18.7729 14.8272 18.7729 15.554C18.7729 15.7411 18.8119 15.9191 18.8824 16.0803M21.4046 15.554L24.6504 14.7644M20.0887 16.8698C19.5491 16.8698 19.0854 16.545 18.8824 16.0803M20.0887 16.8698V25.7299M24.6504 14.7644L22.8959 19.1506M24.6504 14.7644L26.3171 19.1506M18.8824 16.0803L15.5271 16.8698M15.5271 16.8698L17.3254 21.256M15.5271 16.8698L13.5972 21.256M20.0887 25.7299H16.8429M20.0887 25.7299H23.4222" stroke="#ACDA53"/>
<path d="M17.5447 21.256C17.5447 21.5324 17.4903 21.8062 17.3845 22.0616C17.2787 22.3171 17.1236 22.5492 16.9281 22.7447C16.7326 22.9402 16.5005 23.0953 16.245 23.2011C15.9896 23.3069 15.7158 23.3613 15.4394 23.3613C15.1629 23.3613 14.8891 23.3069 14.6337 23.2011C14.3782 23.0953 14.1461 22.9402 13.9506 22.7447C13.7551 22.5492 13.6001 22.3171 13.4942 22.0616C13.3884 21.8062 13.334 21.5324 13.334 21.256L15.4394 21.256H17.5447Z" stroke="#ACDA53"/>
<path d="M26.668 19.1506C26.668 19.4271 26.6135 19.7009 26.5077 19.9563C26.4019 20.2118 26.2468 20.4439 26.0513 20.6394C25.8558 20.8349 25.6237 20.9899 25.3683 21.0958C25.1128 21.2016 24.8391 21.256 24.5626 21.256C24.2861 21.256 24.0123 21.2016 23.7569 21.0958C23.5015 20.9899 23.2694 20.8349 23.0739 20.6394C22.8784 20.4439 22.7233 20.2118 22.6175 19.9563C22.5117 19.7009 22.4572 19.4271 22.4572 19.1506L24.5626 19.1506H26.668Z" stroke="#ACDA53"/>
</svg>
