<svg width="17" height="14" viewBox="0 0 17 14" fill="none" xmlns="http://www.w3.org/2000/svg">
<path d="M8.01559 12.5C7.59429 5.82187 9.15165 3.32234 15.726 1.5C16.0034 8.62993 14.0376 10.7989 8.01559 12.5ZM8.01559 12.5C3.70518 10.9907 1.41515 10.0064 1.25128 3.97248C6.50792 4.93185 8.09486 6.70273 8.01559 12.5ZM14.165 3.97248L12.0679 6.84862M8.86704 11.2385L9.97077 9.72477M9.97077 9.72477H12.3201M9.97077 9.72477V7.30275M9.97077 9.72477L12.0679 6.84862M12.0679 6.84862V4.37615M12.0679 6.84862H14.165M2.81228 6.19266L4.8936 8.41284M6.73841 10.3807L6.12347 9.72477M6.12347 9.72477V8.05963M6.12347 9.72477H4.37327M6.12347 9.72477L4.8936 8.41284M4.8936 8.41284V6.19266M4.8936 8.41284H3.1907" stroke="#ACDA53"/>
</svg>
