<svg width="40" height="40" viewBox="0 0 40 40" fill="none" xmlns="http://www.w3.org/2000/svg">
<rect x="0.707107" y="20" width="27.2843" height="27.2843" transform="rotate(-45 0.707107 20)" stroke="#4F4F4F"/>
<path d="M24.6977 16.3399L24.3434 16.6926L24.3435 16.6928L24.6977 16.3399ZM22.6787 15.5V16V15.5ZM20.6597 16.3399L21.014 16.6927L21.0141 16.6926L20.6597 16.3399ZM20.1096 16.8922L19.7553 17.2451L20.1096 17.6007L20.4638 17.2451L20.1096 16.8922ZM19.5594 16.3399L19.2052 16.6927L19.2052 16.6927L19.5594 16.3399ZM16.0716 20.9461L16.4259 20.5932L16.0716 20.9461ZM20.1096 25L19.7553 25.3529C19.8492 25.4471 19.9766 25.5 20.1096 25.5C20.2425 25.5 20.37 25.4471 20.4638 25.3529L20.1096 25ZM24.1475 20.9461L23.7933 20.5932L24.1475 20.9461ZM17.5405 20.3938V20.8938C17.74 20.8938 17.9205 20.7751 17.9995 20.5919L17.5405 20.3938ZM18.415 18.3668L18.8963 18.2312C18.8388 18.0274 18.6593 17.8819 18.4481 17.8679C18.2369 17.8539 18.0398 17.9744 17.9559 18.1687L18.415 18.3668ZM19.5594 22.4271L19.0782 22.5627C19.1374 22.7729 19.3262 22.9203 19.5445 22.9269C19.7628 22.9334 19.96 22.7975 20.0317 22.5912L19.5594 22.4271ZM20.6597 19.2604L21.1125 19.0482C21.0262 18.8641 20.8369 18.7505 20.6338 18.7611C20.4307 18.7716 20.2542 18.9042 20.1874 19.0963L20.6597 19.2604ZM21.1909 20.3938L21.6521 20.2008C21.6494 20.1943 21.6466 20.1879 21.6436 20.1816L21.1909 20.3938ZM21.586 21.3383L21.1247 21.5312C21.192 21.6921 21.3382 21.8062 21.5105 21.8325C21.6828 21.8589 21.8564 21.7935 21.9686 21.6601L21.586 21.3383ZM22.3805 20.3938V19.8938C22.233 19.8938 22.0929 19.959 21.9979 20.0719L22.3805 20.3938ZM25.7512 20.8938C26.0274 20.8938 26.2512 20.6699 26.2512 20.3938C26.2512 20.1176 26.0274 19.8938 25.7512 19.8938V20.8938ZM14.2512 19.8938C13.9751 19.8938 13.7512 20.1176 13.7512 20.3938C13.7512 20.6699 13.9751 20.8938 14.2512 20.8938V19.8938ZM25.052 15.9871C24.7406 15.6743 24.3707 15.426 23.9635 15.2566L23.5794 16.1799C23.865 16.2987 24.1246 16.4729 24.3434 16.6926L25.052 15.9871ZM23.9635 15.2566C23.5562 15.0872 23.1196 15 22.6787 15V16C22.9877 16 23.2938 16.0611 23.5794 16.1799L23.9635 15.2566ZM22.6787 15C22.2378 15 21.8012 15.0872 21.394 15.2566L21.778 16.1799C22.0636 16.0611 22.3697 16 22.6787 16V15ZM21.394 15.2566C20.9867 15.426 20.6168 15.6743 20.3054 15.9871L21.0141 16.6926C21.2328 16.4729 21.4924 16.2987 21.778 16.1799L21.394 15.2566ZM20.3055 15.987L19.7553 16.5393L20.4638 17.2451L21.014 16.6927L20.3055 15.987ZM20.4638 16.5393L19.9137 15.987L19.2052 16.6927L19.7553 17.2451L20.4638 16.5393ZM19.9137 15.987C19.2846 15.3554 18.431 15.0003 17.5405 15.0003V16.0003C18.1645 16.0003 18.7633 16.2491 19.2052 16.6927L19.9137 15.987ZM17.5405 15.0003C16.6499 15.0003 15.7963 15.3554 15.1672 15.987L15.8757 16.6927C16.3176 16.2491 16.9164 16.0003 17.5405 16.0003V15.0003ZM15.1672 15.987C14.5382 16.6185 14.1852 17.4746 14.1852 18.3668H15.1852C15.1852 17.7385 15.4338 17.1364 15.8757 16.6927L15.1672 15.987ZM14.1852 18.3668C14.1852 19.259 14.5382 20.1151 15.1672 20.7466L15.8757 20.0409C15.4338 19.5973 15.1852 18.9951 15.1852 18.3668H14.1852ZM15.1672 20.7466L15.7174 21.299L16.4259 20.5932L15.8757 20.0409L15.1672 20.7466ZM15.7174 21.299L19.7553 25.3529L20.4638 24.6471L16.4259 20.5932L15.7174 21.299ZM20.4638 25.3529L24.5018 21.299L23.7933 20.5932L19.7553 24.6471L20.4638 25.3529ZM24.5018 21.299L25.0519 20.7466L24.3434 20.0409L23.7933 20.5932L24.5018 21.299ZM25.0519 20.7467C25.3634 20.434 25.6105 20.0629 25.779 19.6546L24.8546 19.2731C24.7361 19.5604 24.5624 19.8212 24.3435 20.0408L25.0519 20.7467ZM25.779 19.6546C25.9475 19.2463 26.0342 18.8087 26.0342 18.3668H25.0342C25.0342 18.6779 24.9732 18.9858 24.8546 19.2731L25.779 19.6546ZM26.0342 18.3668C26.0342 17.9249 25.9475 17.4874 25.779 17.079L24.8546 17.4605C24.9732 17.7478 25.0342 18.0558 25.0342 18.3668H26.0342ZM25.779 17.079C25.6105 16.6707 25.3634 16.2996 25.0519 15.9869L24.3435 16.6928C24.5624 16.9124 24.7361 17.1733 24.8546 17.4605L25.779 17.079ZM15.5215 20.8938H17.5405V19.8938H15.5215V20.8938ZM17.9995 20.5919L18.8741 18.5649L17.9559 18.1687L17.0814 20.1957L17.9995 20.5919ZM17.9338 18.5025L19.0782 22.5627L20.0407 22.2914L18.8963 18.2312L17.9338 18.5025ZM20.0317 22.5912L21.132 19.4245L20.1874 19.0963L19.0871 22.263L20.0317 22.5912ZM20.207 19.4726L20.7381 20.6059L21.6436 20.1816L21.1125 19.0482L20.207 19.4726ZM20.7296 20.5867L21.1247 21.5312L22.0473 21.1453L21.6521 20.2008L20.7296 20.5867ZM21.9686 21.6601L22.7632 20.7156L21.9979 20.0719L21.2034 21.0164L21.9686 21.6601ZM22.3805 20.8938H24.6977V19.8938H22.3805V20.8938ZM25.7512 19.8938H24.6977V20.8938H25.7512V19.8938ZM15.5215 19.8938H14.2512V20.8938H15.5215V19.8938Z" fill="#ACDA53"/>
</svg>
