<svg width="41" height="40" viewBox="0 0 41 40" fill="none" xmlns="http://www.w3.org/2000/svg">
<rect x="1.20711" y="20" width="27.2843" height="27.2843" transform="rotate(-45 1.20711 20)" stroke="#4F4F4F"/>
<path d="M20.0156 25.5C19.5943 18.8219 21.1517 16.3223 27.726 14.5C28.0034 21.6299 26.0376 23.7989 20.0156 25.5ZM20.0156 25.5C15.7052 23.9907 13.4152 23.0064 13.2513 16.9725C18.5079 17.9319 20.0949 19.7027 20.0156 25.5ZM26.165 16.9725L24.0679 19.8486M20.867 24.2385L21.9708 22.7248M21.9708 22.7248H24.3201M21.9708 22.7248V20.3028M21.9708 22.7248L24.0679 19.8486M24.0679 19.8486V17.3761M24.0679 19.8486H26.165M14.8123 19.1927L16.8936 21.4128M18.7384 23.3807L18.1235 22.7248M18.1235 22.7248V21.0596M18.1235 22.7248H16.3733M18.1235 22.7248L16.8936 21.4128M16.8936 21.4128V19.1927M16.8936 21.4128H15.1907" stroke="#ACDA53"/>
</svg>
