<svg width="29" height="31" viewBox="0 0 29 31" fill="none" xmlns="http://www.w3.org/2000/svg">
<path d="M25.748 3.27162C25.0019 2.56971 21.9823 0.332004 15.25 0.302008C15.25 0.302008 7.3133 -0.183928 3.44777 3.43959C1.29764 5.6353 0.53981 8.85688 0.457565 12.8464C0.37532 16.8358 0.27545 24.3108 7.33093 26.3386H7.3368L7.33093 29.4342C7.33093 29.4342 7.28393 30.688 8.09463 30.94C9.06983 31.2519 9.64555 30.298 10.5796 29.2722C11.0907 28.7083 11.7957 27.8804 12.3303 27.2504C17.1592 27.6644 20.8662 26.7165 21.2891 26.5785C22.2643 26.2546 27.7806 25.5347 28.6736 18.0597C29.6018 10.3447 28.2271 5.47333 25.748 3.27162ZM26.5646 17.4957C25.8068 23.7349 21.3361 24.1309 20.5137 24.4008C20.1612 24.5148 16.9008 25.3427 12.8061 25.0727C12.8061 25.0727 9.75129 28.8342 8.79959 29.8121C8.48824 30.1301 8.14751 30.1001 8.15338 29.4702C8.15338 29.0562 8.17688 24.3288 8.17688 24.3288C8.171 24.3288 8.171 24.3288 8.17688 24.3288C2.19647 22.6371 2.54895 16.2719 2.61357 12.9423C2.67819 9.61278 3.29503 6.88314 5.11618 5.04738C8.38837 2.01778 15.1266 2.46772 15.1266 2.46772C20.8192 2.49172 23.545 4.24349 24.1795 4.83141C26.2767 6.66717 27.3459 11.0586 26.5646 17.4957ZM18.3988 12.6484C18.4223 13.1643 17.6645 13.2003 17.641 12.6844C17.5763 11.3645 16.9713 10.7226 15.7258 10.6506C15.2206 10.6206 15.2676 9.84675 15.767 9.87674C17.406 9.96673 18.3166 10.9266 18.3988 12.6484ZM19.5914 13.3263C19.6501 10.7826 18.0933 8.79089 15.1384 8.56892C14.639 8.53292 14.6919 7.75902 15.1912 7.79502C18.5985 8.04698 20.4138 10.4407 20.3492 13.3443C20.3433 13.8602 19.5796 13.8362 19.5914 13.3263ZM22.3525 14.1302C22.3583 14.6461 21.5946 14.6521 21.5946 14.1362C21.5594 9.24683 18.3694 6.58318 14.498 6.55318C13.9987 6.54718 13.9987 5.77928 14.498 5.77928C18.8277 5.80928 22.3113 8.86288 22.3525 14.1302ZM21.6886 20.0154V20.0274C21.0542 21.1673 19.8675 22.4271 18.6455 22.0251L18.6338 22.0071C17.3942 21.6532 14.4745 20.1174 12.6299 18.6176C11.6782 17.8497 10.8087 16.9438 10.139 16.0739C9.53393 15.3 8.92296 14.3821 8.32962 13.2783C7.07832 10.9686 6.80221 9.93674 6.80221 9.93674C6.4086 8.6889 7.63641 7.47706 8.75847 6.82915H8.77022C9.31069 6.54118 9.82766 6.63717 10.1743 7.06311C10.1743 7.06311 10.9027 7.951 11.2141 8.38894C11.5078 8.79689 11.9014 9.4508 12.107 9.81675C12.4654 10.4707 12.2421 11.1366 11.8897 11.4125L11.1847 11.9885C10.8264 12.2824 10.8734 12.8284 10.8734 12.8284C10.8734 12.8284 11.919 16.8658 15.8257 17.8857C15.8257 17.8857 16.3603 17.9337 16.6482 17.5677L17.2121 16.8478C17.4824 16.4879 18.1344 16.2599 18.7748 16.6259C19.6384 17.1238 20.7369 17.8977 21.4654 18.5996C21.8766 18.9415 21.9706 19.4635 21.6886 20.0154Z" fill="white"/>
</svg>
