<svg width="27" height="27" viewBox="0 0 27 27" fill="inherit" xmlns="http://www.w3.org/2000/svg">
<path d="M13.3746 0.560059C6.32697 0.560059 0.589752 6.29234 0.587192 13.34C0.585912 15.5928 1.17597 17.792 2.29468 19.7299L0.559692 26.1599L7.25715 24.5774C9.12466 25.5963 11.227 26.1311 13.3671 26.1324H13.3721C20.4185 26.1324 26.1532 20.3988 26.157 13.3525C26.1596 9.93618 24.8311 6.72416 22.4171 4.30753C20.003 1.89219 16.7947 0.561339 13.3746 0.560059ZM13.3721 3.12004C16.1062 3.12132 18.6756 4.1873 20.6071 6.11752C22.5386 8.05031 23.5996 10.6185 23.597 13.35C23.5945 18.9871 19.0093 23.5724 13.3696 23.5724C11.6634 23.5711 9.97327 23.1427 8.48464 22.3299L7.62215 21.8599L6.66965 22.0849L4.14967 22.6799L4.76467 20.3949L5.04216 19.3699L4.51217 18.4499C3.61873 16.9037 3.1459 15.1358 3.14718 13.34C3.14974 7.70545 7.73631 3.12004 13.3721 3.12004ZM8.84964 7.44001C8.63588 7.44001 8.29026 7.52001 7.99714 7.84001C7.70403 8.15873 6.87715 8.93067 6.87715 10.5025C6.87715 12.0743 8.02214 13.5937 8.18214 13.8075C8.34086 14.02 10.3923 17.3475 13.6396 18.6274C16.3378 19.6911 16.8858 19.4812 17.4721 19.4274C18.0583 19.375 19.3633 18.6562 19.6296 17.91C19.8958 17.1637 19.8964 16.5218 19.8171 16.39C19.7377 16.2568 19.5246 16.1775 19.2046 16.0175C18.8859 15.8575 17.3152 15.0862 17.0221 14.98C16.729 14.8737 16.5146 14.82 16.3021 15.14C16.0896 15.46 15.479 16.1775 15.2921 16.39C15.1052 16.6037 14.9196 16.6325 14.5996 16.4725C14.2796 16.3112 13.2507 15.973 12.0296 14.885C11.0799 14.0389 10.439 12.995 10.2521 12.675C10.0665 12.3563 10.2346 12.1812 10.3946 12.0225C10.538 11.8791 10.7121 11.6494 10.8721 11.4625C11.0308 11.2756 11.0859 11.1425 11.1921 10.93C11.2984 10.7175 11.244 10.53 11.1646 10.37C11.0853 10.21 10.4638 8.63233 10.1796 8.00001C9.94027 7.46881 9.68747 7.45647 9.45963 7.44752C9.27404 7.43984 9.06212 7.44001 8.84964 7.44001Z" fill="inherit"/>
</svg>
